<?xml version="1.0" encoding="UTF-8" standalone="no"?>
<!-- Created with Inkscape (http://www.inkscape.org/) -->

<svg
   xmlns:dc="http://purl.org/dc/elements/1.1/"
   xmlns:cc="http://creativecommons.org/ns#"
   xmlns:rdf="http://www.w3.org/1999/02/22-rdf-syntax-ns#"
   xmlns:svg="http://www.w3.org/2000/svg"
   xmlns="http://www.w3.org/2000/svg"
   xmlns:sodipodi="http://sodipodi.sourceforge.net/DTD/sodipodi-0.dtd"
   xmlns:inkscape="http://www.inkscape.org/namespaces/inkscape"
   width="744.09448"
   height="1052.3622"
   id="svg3344"
   version="1.1"
   inkscape:version="0.91 r13725"
   viewBox="0 0 744.09448 1052.3622"
   sodipodi:docname="agility.svg"
   inkscape:export-filename="C:\Users\Yannick R. Brodard\Documents\GitHub\Hel\res\agility.png"
   inkscape:export-xdpi="90"
   inkscape:export-ydpi="90">
  <defs
     id="defs3346">
    <pattern
       height="100"
       width="100"
       y="0"
       x="0"
       patternUnits="userSpaceOnUse"
       id="gridpattern">
      <image
         height="100"
         width="100"
         y="0"
         x="0"
         id="svg_1" />
    </pattern>
  </defs>
  <sodipodi:namedview
     id="base"
     pagecolor="#ffffff"
     bordercolor="#ffffff"
     borderopacity="0.0"
     inkscape:pageopacity="0.0"
     inkscape:pageshadow="0"
     inkscape:zoom="0.35"
     inkscape:cx="-681.42857"
     inkscape:cy="521.81808"
     inkscape:document-units="px"
     inkscape:current-layer="layer1"
     showgrid="false"
     inkscape:window-width="1680"
     inkscape:window-height="988"
     inkscape:window-x="-8"
     inkscape:window-y="-8"
     inkscape:window-maximized="1" />
  <metadata
     id="metadata3349">
    <rdf:RDF>
      <cc:Work
         rdf:about="">
        <dc:format>image/svg+xml</dc:format>
        <dc:type
           rdf:resource="http://purl.org/dc/dcmitype/StillImage" />
        <dc:title></dc:title>
      </cc:Work>
    </rdf:RDF>
  </metadata>
  <g
     inkscape:label="Layer 1"
     inkscape:groupmode="layer"
     id="layer1">
    <circle
       style="fill:#820100;fill-opacity:1;fill-rule:evenodd;stroke:#000000;stroke-width:10;stroke-linecap:butt;stroke-linejoin:miter;stroke-miterlimit:4;stroke-dasharray:none;stroke-opacity:1"
       id="path3352-9"
       cx="-5.7143731"
       cy="378.07645"
       r="530"
       inkscape:export-xdpi="90"
       inkscape:export-ydpi="90" />
    <path
       style="fill:#ff2d2d;fill-opacity:1;fill-rule:evenodd;stroke:none;stroke-width:10;stroke-linecap:butt;stroke-linejoin:miter;stroke-miterlimit:4;stroke-dasharray:none;stroke-opacity:1"
       d="m -322.38956,-36.982328 c 2.3535,6.00552 4.80683,12.08249 6.85211,17.870319 1.58623,4.488842 3.07465,8.911924 4.45751,13.2728477 1.38285,4.3609229 2.65915,8.6595114 3.82291,12.8951564 1.16377,4.2356449 2.21526,8.4082939 3.14423,12.5213009 0.92896,4.113007 1.73532,8.165938 2.41377,12.158953 0.67845,3.99301 1.2289,7.926688 1.64113,11.802348 0.41223,3.87564 0.68643,7.69439 0.81673,11.45533 0.1303,3.76093 0.11558,7.46519 -0.0517,11.11406 -0.16733,3.64886 -0.4875,7.24104 -0.96818,10.78048 -0.48069,3.53943 -1.12089,7.02574 -1.93063,10.45838 -0.80975,3.43264 -1.78841,6.81164 -2.94293,10.14012 -1.1545,3.328493 -2.48623,6.606403 -4.00121,9.833383 -1.51498,3.22698 -3.21437,6.40426 -5.10553,9.53237 -1.89116,3.1281 -3.97281,6.20715 -6.25586,9.23904 -2.28305,3.03187 -4.7673,6.01508 -7.45794,8.95337 l -51.78961,84.63908 c -2.72831,3.77993 -5.21216,7.52513 -7.45795,11.23677 -2.24579,3.71165 -4.25329,7.38973 -6.03346,11.03546 -1.78017,3.64574 -3.33312,7.25961 -4.66457,10.84183 -1.33146,3.58222 -2.44206,7.13286 -3.3417,10.65394 -0.89964,3.52108 -1.58779,7.0114 -2.07251,10.47372 -0.48471,3.46232 -0.76646,6.89713 -0.85316,10.30308 -0.0867,3.40596 0.0219,6.78434 0.31635,10.1363 0.29442,3.35196 0.77542,6.67681 1.43406,9.97716 0.65866,3.30036 1.49408,6.57457 2.50005,9.8257 1.00597,3.25114 2.18169,6.47955 3.51808,9.68383 1.33639,3.20429 2.83444,6.38597 4.48435,9.5458 1.64992,3.15982 3.45233,6.29766 5.39887,9.41542 1.94653,3.11774 4.03727,6.21465 6.26352,9.29271 2.22627,3.07806 4.58734,6.13694 7.07643,9.17769 2.48909,3.04075 5.10638,6.06258 7.84139,9.0684 2.73501,3.00582 5.58864,5.99543 8.55268,8.96871 3.55931,2.85874 7.16971,5.59671 10.81881,8.23634 3.6491,2.63963 7.33661,5.1815 11.05272,7.64392 7.43224,4.92485 14.97505,9.53589 22.53873,14.0033 7.56367,4.46741 15.14846,8.79155 22.66142,13.13672 7.51297,4.34519 14.95571,8.7128 22.23581,13.27094 3.64005,2.27907 7.23855,4.60458 10.78623,6.99973 3.54768,2.39516 7.04309,4.85879 10.47563,7.41194 3.43255,2.55315 6.80332,5.19571 10.09795,7.94875 3.29464,2.75304 6.51344,5.61728 9.64741,8.61211 3.13396,2.99483 6.18307,6.12157 9.13358,9.40008 2.95052,3.27852 5.80262,6.70858 8.54693,10.31268 2.7443,3.60409 5.37975,7.38213 7.89506,11.35372 2.51533,3.97158 4.91064,8.13649 7.17421,12.51747 1.15433,2.23409 2.68673,4.80312 4.50928,7.62666 1.82255,2.82353 3.9344,5.90217 6.24818,9.1566 4.62759,6.50884 10.06204,13.72008 15.59268,21.00112 5.53065,7.28103 11.15765,14.63241 16.1755,21.41716 5.01786,6.78474 9.42634,13.00368 12.51554,18.02369 10.00466,14.71482 18.82867,27.74226 27.31258,39.62299 4.24196,5.94036 8.39802,11.5939 12.574975,17.02866 4.176958,5.43476 8.373679,10.65094 12.695768,15.71537 4.322087,5.06443 8.769969,9.97724 13.447313,14.80662 4.677344,4.82938 9.58498,9.5747 14.827705,14.3043 5.242727,4.72961 10.820625,9.44334 16.838859,14.20845 6.018234,4.76511 12.476905,9.58124 19.480774,14.51712 2.239954,1.34577 4.395972,2.78103 6.505095,4.26387 2.109124,1.48284 4.170361,3.01323 6.221348,4.55338 4.101974,3.0803 8.16203904,6.19527 12.4676193,9.02623 4.1740798,2.74451 8.1214387,5.79623 12.2567257,8.58718 2.067643,1.39548 4.183669,2.72568 6.395814,3.9207 2.212144,1.19501 4.521118,2.25462 6.980563,3.10779 1.644619,0.52273 3.532375,0.92475 5.349017,1.18868 1.816642,0.26392 3.563253,0.38858 4.923396,0.35851 l 8.980213,0 c 2.607699,0.64462 5.436769,0.69455 8.105969,1.05447 1.334593,0.17996 2.629733,0.43684 3.836333,0.88574 1.20662,0.44892 2.32606,1.08958 3.30912,2.03417 4.66361,2.53588 9.18054,5.6224 13.86526,8.35712 2.34236,1.36736 4.72685,2.64599 7.19146,3.72514 2.4646,1.07915 5.00978,1.95739 7.674594,2.52305 2.809253,0.41418 5.635606,0.67508 8.472159,0.83206 2.83656,0.157 5.68308,0.21059 8.53351,0.21282 5.70084,0.005 11.41622,-0.19747 17.09193,-0.19747 1.30586,0 2.44935,-0.31682 3.47589,-0.84741 1.02655,-0.5306 1.93684,-1.27601 2.77422,-2.13002 1.67473,-1.70803 3.05986,-3.85494 4.51885,-5.6136 0.1909,-1.11991 0.43439,-1.99149 0.71129,-2.65725 0.27691,-0.66575 0.58883,-1.12619 0.92026,-1.4264 0.33143,-0.30021 0.68083,-0.43877 1.0353,-0.46205 0.35446,-0.0233 0.71228,0.0689 1.05829,0.2339 0.69202,0.33006 1.33677,0.94765 1.80602,1.49926 0.46924,0.5516 0.76467,1.03817 0.75921,1.1024 0.65878,0.84075 1.50097,1.6271 2.43103,2.34666 0.93005,0.71956 1.94665,1.37118 2.9525,1.9383 2.48899,1.40344 5.1069,2.6085 7.81263,3.61202 2.70573,1.00353 5.49915,1.8063 8.34178,2.40419 2.36981,0.31606 4.75276,0.51827 7.14161,0.63268 2.38886,0.1144 4.78499,0.14034 7.18379,0.10544 4.7976,-0.0698 9.60591,-0.38519 14.38866,-0.73812 1.95313,-0.44105 3.83181,-1.16801 5.62894,-2.06484 1.79712,-0.89683 3.51203,-1.96435 5.14004,-3.08671 1.37538,-0.94825 2.16535,-2.28493 3.59668,-3.43948 0.25246,-0.12077 5.6024,0 6.28845,0 l 13.46265,0 c 2.82778,-0.0934 5.70924,-0.0909 8.54692,-0.29716 1.41885,-0.10315 2.82591,-0.25809 4.2102,-0.50423 1.38429,-0.24615 2.74518,-0.58305 4.07024,-1.04871 0.71655,-0.2518 1.40014,-0.60315 2.03799,-1.01996 0.63786,-0.41681 1.2307,-0.89964 1.76959,-1.41681 1.09444,-1.61945 2.43942,-3.00551 3.92452,-4.25238 1.48511,-1.24687 3.1103,-2.35437 4.76811,-3.41839 1.78659,-0.94543 3.90854,-1.22584 5.67302,-2.20863 1.90332,-1.06006 3.66225,-2.3179 5.36244,-3.65995 1.7002,-1.34204 3.34242,-2.76957 5.01351,-4.16993 1.23324,-1.08131 2.15091,-2.02398 3.13463,-3.12314 0.98373,-1.09916 2.03369,-2.35439 3.52959,-4.05681 0.43175,-0.77244 0.67816,-1.62333 0.82824,-2.50005 0.15008,-0.8767 0.20301,-1.77839 0.24348,-2.65341 0.0731,-1.58302 0.13094,-2.96317 0.008,-4.43835 -0.12328,-1.47517 -0.42684,-3.0454 -1.07939,-5.0135 -1.70584,-1.77536 -3.51736,-3.51543 -5.38545,-5.15154 -1.18557,-1.15826 -2.43881,-2.24441 -3.57751,-3.42031 -0.4196,-0.4381 -0.72246,-0.97341 -0.93176,-1.56253 -0.2093,-0.58911 -0.32426,-1.23301 -0.36619,-1.88844 -0.0838,-1.31088 0.12435,-2.66862 0.45246,-3.73665 0.38505,-0.66023 0.89669,-1.24132 1.4935,-1.75424 0.59682,-0.51293 1.27907,-0.9594 2.00349,-1.34781 1.44885,-0.77679 3.06843,-1.32733 4.5227,-1.74274 0,0 1.08524,-0.0137 2.41377,-0.12654 1.32853,-0.11284 2.90005,-0.32411 3.87468,-0.71895 1.57099,-0.63655 2.96157,-1.5899 4.27347,-2.65917 1.31189,-1.06928 2.54512,-2.2553 3.80374,-3.35704 1.3394,-1.17248 2.64292,-2.38954 3.88811,-3.65804 1.24517,-1.26849 2.43111,-2.58758 3.53724,-3.96478 0.98086,-1.22131 2.12323,-2.5532 3.09055,-3.89195 0.96731,-1.33874 1.75981,-2.68369 2.04183,-3.93602 l 1.78875,-11.16584 0,-7.72635 c 0.005,-2.30943 -0.22392,-4.59463 -0.56366,-6.87512 -0.33973,-2.28049 -0.79044,-4.55656 -1.22509,-6.84827 -0.56184,-1.91969 -1.2598,-3.81791 -2.02841,-5.68262 -0.76861,-1.8647 -1.60738,-3.69552 -2.45212,-5.48322 -0.0471,-0.71748 -0.34416,-1.43923 -0.77646,-2.10318 -0.43231,-0.66395 -1.00034,-1.27024 -1.58937,-1.76 -0.58632,-0.62788 -1.01633,-0.93639 -1.35164,-1.09472 -0.3353,-0.15835 -0.57489,-0.16711 -0.78222,-0.19365 -0.63182,-0.0808 -1.82254,-0.0141 -2.69176,0 l -4.48243,0 -2.69177,0 -8.98213,0 -1.42257,0 -9.34641,-0.86466 -2.69175,0 c -1.16397,-0.30783 -2.0138,-0.69844 -2.93142,-1.07364 -0.91762,-0.37518 -1.90281,-0.73556 -3.33786,-0.97969 -3.04269,-0.90427 -3.85364,-0.94083 -6.28845,-1.36889 -1.44292,-0.55588 -2.65546,-1.3369 -3.88044,-2.16261 -1.22497,-0.82571 -2.4629,-1.69448 -3.95904,-2.42528 -2.09129,-0.9164 -3.12428,-1.29493 -3.90344,-1.49159 -0.77915,-0.19664 -1.3041,-0.21203 -2.38501,-0.40069 -2.43421,-0.4247 -5.05099,-0.35852 -7.41193,-0.39878 -2.03764,-0.74464 -3.857,-1.81989 -5.64618,-2.92758 -1.7892,-1.10769 -3.54827,-2.24784 -5.46981,-3.12506 l -24.6745,-14.44042 c -2.52942,-1.56547 -5.22578,-3.1016 -8.02352,-4.59172 -2.79774,-1.49012 -5.69707,-2.93501 -8.63129,-4.32139 -5.86841,-2.77276 -11.87697,-5.30884 -17.50029,-7.49629 l -7.55956,-2.22589 -2.21055,-0.64418 c -3.97953,-10.38858 -7.55497,-19.98809 -10.79005,-29.28731 -3.23509,-9.29922 -6.12978,-18.29887 -8.75207,-27.4832 -1.31114,-4.59217 -2.55402,-9.23031 -3.73664,-13.97646 -1.18263,-4.74617 -2.30564,-9.59869 -3.37621,-14.62065 -1.07056,-5.02196 -2.08874,-10.21337 -3.0637,-15.63294 -0.97496,-5.41957 -1.90715,-11.06858 -2.80297,-17.00757 -0.80515,-5.33798 -1.78828,-10.92834 -2.92949,-16.70082 -1.14121,-5.77249 -2.44016,-11.72626 -3.87469,-17.78788 -1.43452,-6.06162 -3.0044,-12.23243 -4.68949,-18.43781 -1.68509,-6.20538 -3.48486,-12.44496 -5.37778,-18.6487 -1.892913,-6.20376 -3.879606,-12.37149 -5.937596,-18.42823 -2.057993,-6.05675 -4.186747,-12.00243 -6.367067,-17.76679 -2.18032,-5.76436 -4.412,-11.34739 -6.6719,-16.67398 -2.25989,-5.32659 -4.54962,-10.39677 -6.84635,-15.14021 -1.78808,-3.99835 -3.48504,-8.05037 -5.1017,-12.15511 -1.61666,-4.10475 -3.15235,-8.2634 -4.61472,-12.47721 -2.92474,-8.42761 -5.5576,-17.07526 -7.96794,-25.95519 -2.410333,-8.87993 -4.598683,-17.99149 -6.631623,-27.34518 -2.033125,-9.35368 -3.911322,-18.94956 -5.703885,-28.79842 C 43.134271,202.69758 41.42806,192.59504 39.738862,182.22959 38.049664,171.86414 36.377265,161.23452 34.65442,150.33105 32.931574,139.42757 31.158648,128.25045 29.265142,116.78753 27.371635,105.32461 25.358091,93.577657 23.15691,81.533867 20.700509,63.554757 18.28634,44.534257 15.932861,24.857293 13.579381,5.1803201 11.28587,-15.154658 9.0711641,-35.761064 6.8564602,-56.367471 4.7211812,-77.245477 2.6811033,-98.012884 1.225467,-112.83084 -0.11473096,-127.38869 -1.465824,-141.95343 a 520.25421,520.25421 0 0 0 -7.826052,-0.39111 520.25421,520.25421 0 0 0 -313.097684,105.362212 z"
       id="path3352"
       inkscape:connector-curvature="0" />
    <rect
       style="fill:#ffffaa;stroke:#000000;stroke-width:0.75813562px"
       id="svg_10"
       height="0"
       width="3.0325425"
       y="644.7536"
       x="-388.6022" />
    <path
       style="fill:#000000;stroke:#000000;stroke-width:0.75813562px"
       d="m 191.83702,651.42052 0,0 z"
       id="path2826" />
  </g>
</svg>
