<?xml version="1.0" encoding="UTF-8" standalone="no"?>
<!-- Created with Inkscape (http://www.inkscape.org/) -->

<svg
   xmlns:dc="http://purl.org/dc/elements/1.1/"
   xmlns:cc="http://creativecommons.org/ns#"
   xmlns:rdf="http://www.w3.org/1999/02/22-rdf-syntax-ns#"
   xmlns:svg="http://www.w3.org/2000/svg"
   xmlns="http://www.w3.org/2000/svg"
   xmlns:sodipodi="http://sodipodi.sourceforge.net/DTD/sodipodi-0.dtd"
   xmlns:inkscape="http://www.inkscape.org/namespaces/inkscape"
   width="210mm"
   height="297mm"
   viewBox="0 0 744.09448819 1052.3622047"
   id="svg2"
   version="1.1"
   inkscape:version="0.91 r13725"
   sodipodi:docname="wall.svg"
   inkscape:export-filename="C:\Users\Yannick R. Brodard\Documents\GitHub\Hel\res\scenery\wall.png"
   inkscape:export-xdpi="7.1874037"
   inkscape:export-ydpi="7.1874037">
  <defs
     id="defs4" />
  <sodipodi:namedview
     id="base"
     pagecolor="#ffffff"
     bordercolor="#666666"
     borderopacity="1.0"
     inkscape:pageopacity="0.0"
     inkscape:pageshadow="2"
     inkscape:zoom="0.7"
     inkscape:cx="192.45897"
     inkscape:cy="499.69346"
     inkscape:document-units="px"
     inkscape:current-layer="layer1"
     showgrid="false"
     inkscape:window-width="1680"
     inkscape:window-height="988"
     inkscape:window-x="-8"
     inkscape:window-y="-8"
     inkscape:window-maximized="1" />
  <metadata
     id="metadata7">
    <rdf:RDF>
      <cc:Work
         rdf:about="">
        <dc:format>image/svg+xml</dc:format>
        <dc:type
           rdf:resource="http://purl.org/dc/dcmitype/StillImage" />
        <dc:title></dc:title>
      </cc:Work>
    </rdf:RDF>
  </metadata>
  <g
     inkscape:label="Calque 1"
     inkscape:groupmode="layer"
     id="layer1">
    <rect
       style="fill:#7e7e7e;fill-opacity:1;fill-rule:evenodd;stroke:none;stroke-width:9;stroke-miterlimit:4;stroke-dasharray:none;stroke-opacity:1"
       id="rect5240"
       width="400"
       height="400"
       x="197.18851"
       y="183.03746"
       ry="0" />
    <path
       sodipodi:type="star"
       style="fill:#515151;fill-opacity:1;fill-rule:evenodd;stroke:none;stroke-width:9;stroke-miterlimit:4;stroke-dasharray:none;stroke-opacity:1"
       id="path5274"
       sodipodi:sides="5"
       sodipodi:cx="225.62259"
       sodipodi:cy="213.15401"
       sodipodi:r1="28.096676"
       sodipodi:r2="25.00491"
       sodipodi:arg1="1.7211678"
       sodipodi:arg2="2.2968454"
       inkscape:flatsided="false"
       inkscape:rounded="0"
       inkscape:randomized="0"
       d="m 221.41355,240.93363 -12.39223,-9.08087 -11.11938,-14.11741 4.807,-14.59185 9.99038,-14.93769 15.36312,0.0626 17.29378,4.88541 4.68793,14.63055 0.69776,17.95703 -12.46582,8.97957 z"
       inkscape:transform-center-x="1.3447907"
       inkscape:transform-center-y="1.4157146"
       transform="matrix(1,0,-0.34356914,1,81.804568,2.8571429)" />
    <path
       sodipodi:type="star"
       style="fill:#515151;fill-opacity:1;fill-rule:evenodd;stroke:none;stroke-width:9;stroke-miterlimit:4;stroke-dasharray:none;stroke-opacity:1"
       id="path5274-9"
       sodipodi:sides="5"
       sodipodi:cx="244.15781"
       sodipodi:cy="280.9465"
       sodipodi:r1="28.096676"
       sodipodi:r2="25.00491"
       sodipodi:arg1="1.7211678"
       sodipodi:arg2="2.2968454"
       inkscape:flatsided="false"
       inkscape:rounded="0"
       inkscape:randomized="0"
       d="m 239.94877,308.72612 -12.39223,-9.08086 -11.11938,-14.11741 4.807,-14.59186 9.99038,-14.93768 15.36312,0.0626 17.29378,4.88542 4.68793,14.63054 0.69776,17.95704 -12.46582,8.97957 z"
       inkscape:transform-center-x="0.6559185"
       inkscape:transform-center-y="-0.99370848"
       transform="matrix(0.56563836,-0.50260763,0.66422945,0.74752876,-74.448063,193.64649)" />
    <path
       sodipodi:type="star"
       style="fill:#515151;fill-opacity:1;fill-rule:evenodd;stroke:none;stroke-width:9;stroke-miterlimit:4;stroke-dasharray:none;stroke-opacity:1"
       id="path5274-4"
       sodipodi:sides="5"
       sodipodi:cx="567.01495"
       sodipodi:cy="550.94647"
       sodipodi:r1="28.096676"
       sodipodi:r2="25.00491"
       sodipodi:arg1="1.7211678"
       sodipodi:arg2="2.2968454"
       inkscape:flatsided="false"
       inkscape:rounded="0"
       inkscape:randomized="0"
       d="m 562.80592,578.72609 -12.39223,-9.08086 -11.11939,-14.11741 4.80701,-14.59186 9.99037,-14.93768 15.36313,0.0626 17.29377,4.88542 4.68793,14.63054 0.69777,17.95704 -12.46583,8.97957 z"
       inkscape:transform-center-x="0.18370745"
       inkscape:transform-center-y="-1.5767706"
       transform="matrix(0.89747461,0.44106613,-0.44106613,0.89747461,301.13726,-193.60509)" />
    <path
       sodipodi:type="star"
       style="fill:#515151;fill-opacity:1;fill-rule:evenodd;stroke:none;stroke-width:9;stroke-miterlimit:4;stroke-dasharray:none;stroke-opacity:1"
       id="path5274-7"
       sodipodi:sides="5"
       sodipodi:cx="544.15784"
       sodipodi:cy="495.23221"
       sodipodi:r1="28.096676"
       sodipodi:r2="25.00491"
       sodipodi:arg1="1.7211678"
       sodipodi:arg2="2.2968454"
       inkscape:flatsided="false"
       inkscape:rounded="0"
       inkscape:randomized="0"
       d="m 539.9488,523.01183 -12.39223,-9.08087 -11.11938,-14.11741 4.807,-14.59185 9.99038,-14.93768 15.36312,0.0626 17.29378,4.88541 4.68793,14.63055 0.69776,17.95703 -12.46582,8.97957 z"
       inkscape:transform-center-x="0.61383667"
       inkscape:transform-center-y="-1.6057976"
       transform="matrix(-0.97565161,0.2193261,-0.2193261,-0.97565161,1183.6836,859.05829)" />
    <path
       sodipodi:type="star"
       style="fill:#515151;fill-opacity:1;fill-rule:evenodd;stroke:none;stroke-width:9;stroke-miterlimit:4;stroke-dasharray:none;stroke-opacity:1"
       id="path5274-44"
       sodipodi:sides="5"
       sodipodi:cx="562.72925"
       sodipodi:cy="435.23221"
       sodipodi:r1="28.096676"
       sodipodi:r2="25.00491"
       sodipodi:arg1="1.7211678"
       sodipodi:arg2="2.2968454"
       inkscape:flatsided="false"
       inkscape:rounded="0"
       inkscape:randomized="0"
       d="m 558.52021,463.01183 -12.39223,-9.08087 -11.11938,-14.11741 4.807,-14.59185 9.99038,-14.93768 15.36312,0.0626 17.29378,4.88541 4.68793,14.63055 0.69776,17.95703 -12.46582,8.97957 z"
       inkscape:transform-center-x="-1.4451637"
       inkscape:transform-center-y="-1.2711313"
       transform="matrix(0.81880901,-0.57406603,0.57406603,0.81880901,-147.89056,401.9039)" />
    <path
       sodipodi:type="star"
       style="fill:#515151;fill-opacity:1;fill-rule:evenodd;stroke:none;stroke-width:9;stroke-miterlimit:4;stroke-dasharray:none;stroke-opacity:1"
       id="path5274-98"
       sodipodi:sides="5"
       sodipodi:cx="502.72922"
       sodipodi:cy="453.80362"
       sodipodi:r1="28.096676"
       sodipodi:r2="25.00491"
       sodipodi:arg1="1.7211678"
       sodipodi:arg2="2.2968454"
       inkscape:flatsided="false"
       inkscape:rounded="0"
       inkscape:randomized="0"
       d="m 498.52018,481.58324 -12.39223,-9.08087 -11.11938,-14.11741 4.807,-14.59185 9.99038,-14.93768 15.36312,0.0626 17.29378,4.88541 4.68793,14.63055 0.69776,17.95703 -12.46582,8.97958 z"
       inkscape:transform-center-x="-1.1462234"
       inkscape:transform-center-y="-1.4626756"
       transform="matrix(0.79832582,-0.60222577,0.60222577,0.79832582,-171.90473,394.27696)" />
    <path
       sodipodi:type="star"
       style="fill:#515151;fill-opacity:1;fill-rule:evenodd;stroke:none;stroke-width:9;stroke-miterlimit:4;stroke-dasharray:none;stroke-opacity:1"
       id="path5274-5"
       sodipodi:sides="5"
       sodipodi:cx="508.44351"
       sodipodi:cy="546.66078"
       sodipodi:r1="28.096676"
       sodipodi:r2="25.00491"
       sodipodi:arg1="1.7211678"
       sodipodi:arg2="2.2968454"
       inkscape:flatsided="false"
       inkscape:rounded="0"
       inkscape:randomized="0"
       d="m 504.23448,574.44039 -12.39224,-9.08087 -11.11938,-14.11741 4.80701,-14.59185 9.99037,-14.93769 15.36313,0.0626 17.29377,4.88541 4.68793,14.63055 0.69777,17.95703 -12.46583,8.97957 z"
       inkscape:transform-center-x="1.3006612"
       inkscape:transform-center-y="1.4157146" />
    <path
       sodipodi:type="star"
       style="fill:#515151;fill-opacity:1;fill-rule:evenodd;stroke:none;stroke-width:9;stroke-miterlimit:4;stroke-dasharray:none;stroke-opacity:1"
       id="path5274-2"
       sodipodi:sides="5"
       sodipodi:cx="432.72924"
       sodipodi:cy="543.80362"
       sodipodi:r1="28.096676"
       sodipodi:r2="25.00491"
       sodipodi:arg1="1.7211678"
       sodipodi:arg2="2.2968454"
       inkscape:flatsided="false"
       inkscape:rounded="0"
       inkscape:randomized="0"
       d="m 428.52021,571.58327 -12.39223,-9.08087 -11.11938,-14.11741 4.807,-14.59185 9.99038,-14.93768 15.36312,0.0626 17.29378,4.88541 4.68793,14.63055 0.69776,17.95703 -12.46582,8.97958 z"
       inkscape:transform-center-x="1.3006612"
       inkscape:transform-center-y="1.4157146" />
    <path
       sodipodi:type="star"
       style="fill:#515151;fill-opacity:1;fill-rule:evenodd;stroke:none;stroke-width:9;stroke-miterlimit:4;stroke-dasharray:none;stroke-opacity:1"
       id="path5274-52"
       sodipodi:sides="5"
       sodipodi:cx="458.44351"
       sodipodi:cy="492.37506"
       sodipodi:r1="28.096676"
       sodipodi:r2="25.00491"
       sodipodi:arg1="1.7211678"
       sodipodi:arg2="2.2968454"
       inkscape:flatsided="false"
       inkscape:rounded="0"
       inkscape:randomized="0"
       d="m 454.23448,520.15468 -12.39224,-9.08086 -11.11938,-14.11741 4.80701,-14.59186 9.99037,-14.93768 15.36313,0.0626 17.29377,4.88542 4.68793,14.63054 0.69777,17.95703 -12.46583,8.97958 z"
       inkscape:transform-center-x="-1.424586"
       inkscape:transform-center-y="-1.2917683"
       transform="matrix(0.80043823,0.59941525,-0.59941525,0.80043823,393.76778,-176.53879)" />
    <path
       sodipodi:type="star"
       style="fill:#515151;fill-opacity:1;fill-rule:evenodd;stroke:none;stroke-width:9;stroke-miterlimit:4;stroke-dasharray:none;stroke-opacity:1"
       id="path5274-2-1"
       sodipodi:sides="5"
       sodipodi:cx="375.58636"
       sodipodi:cy="539.51795"
       sodipodi:r1="28.096676"
       sodipodi:r2="25.00491"
       sodipodi:arg1="1.7211678"
       sodipodi:arg2="2.2968454"
       inkscape:flatsided="false"
       inkscape:rounded="0"
       inkscape:randomized="0"
       d="m 371.37733,567.29756 -12.39223,-9.08086 -11.11939,-14.11741 4.80701,-14.59186 9.99037,-14.93768 15.36313,0.0626 17.29378,4.88542 4.68792,14.63054 0.69777,17.95704 -12.46583,8.97957 z"
       inkscape:transform-center-x="1.3006612"
       inkscape:transform-center-y="1.4157146" />
    <path
       sodipodi:type="star"
       style="fill:#515151;fill-opacity:1;fill-rule:evenodd;stroke:none;stroke-width:9;stroke-miterlimit:4;stroke-dasharray:none;stroke-opacity:1"
       id="path5274-2-8"
       sodipodi:sides="5"
       sodipodi:cx="308.44351"
       sodipodi:cy="543.80365"
       sodipodi:r1="28.096676"
       sodipodi:r2="25.00491"
       sodipodi:arg1="1.7211678"
       sodipodi:arg2="2.2968454"
       inkscape:flatsided="false"
       inkscape:rounded="0"
       inkscape:randomized="0"
       d="m 304.23448,571.58327 -12.39224,-9.08087 -11.11938,-14.11741 4.80701,-14.59185 9.99037,-14.93768 15.36313,0.0626 17.29377,4.88541 4.68793,14.63055 0.69777,17.95703 -12.46583,8.97958 z"
       inkscape:transform-center-x="1.3006612"
       inkscape:transform-center-y="1.4157146" />
    <path
       sodipodi:type="star"
       style="fill:#515151;fill-opacity:1;fill-rule:evenodd;stroke:none;stroke-width:9;stroke-miterlimit:4;stroke-dasharray:none;stroke-opacity:1"
       id="path5274-2-9"
       sodipodi:sides="5"
       sodipodi:cx="232.72923"
       sodipodi:cy="550.94647"
       sodipodi:r1="28.096676"
       sodipodi:r2="25.00491"
       sodipodi:arg1="1.7211678"
       sodipodi:arg2="2.2968454"
       inkscape:flatsided="false"
       inkscape:rounded="0"
       inkscape:randomized="0"
       d="m 228.5202,578.72609 -12.39223,-9.08086 -11.11939,-14.11741 4.80701,-14.59186 9.99037,-14.93768 15.36313,0.0626 17.29377,4.88542 4.68793,14.63054 0.69777,17.95704 -12.46583,8.97957 z"
       inkscape:transform-center-x="0.77681142"
       inkscape:transform-center-y="8.6675854"
       transform="matrix(0.54049889,-0.84134473,0.65898615,0.42334761,-260.41246,513.81696)" />
    <path
       sodipodi:type="star"
       style="fill:#515151;fill-opacity:1;fill-rule:evenodd;stroke:none;stroke-width:9;stroke-miterlimit:4;stroke-dasharray:none;stroke-opacity:1"
       id="path5274-2-3"
       sodipodi:sides="5"
       sodipodi:cx="265.58637"
       sodipodi:cy="505.23221"
       sodipodi:r1="28.096676"
       sodipodi:r2="25.00491"
       sodipodi:arg1="1.7211678"
       sodipodi:arg2="2.2968454"
       inkscape:flatsided="false"
       inkscape:rounded="0"
       inkscape:randomized="0"
       d="m 261.37733,533.01183 -12.39223,-9.08087 -11.11939,-14.11741 4.80701,-14.59185 9.99037,-14.93768 15.36313,0.0626 17.29378,4.88541 4.68792,14.63055 0.69777,17.95703 -12.46583,8.97957 z"
       inkscape:transform-center-x="1.3006612"
       inkscape:transform-center-y="1.4157146" />
    <path
       sodipodi:type="star"
       style="fill:#515151;fill-opacity:1;fill-rule:evenodd;stroke:none;stroke-width:9;stroke-miterlimit:4;stroke-dasharray:none;stroke-opacity:1"
       id="path5274-2-0"
       sodipodi:sides="5"
       sodipodi:cx="231.30067"
       sodipodi:cy="456.66077"
       sodipodi:r1="28.096676"
       sodipodi:r2="25.00491"
       sodipodi:arg1="1.7211678"
       sodipodi:arg2="2.2968454"
       inkscape:flatsided="false"
       inkscape:rounded="0"
       inkscape:randomized="0"
       d="m 227.09164,484.44039 -12.39223,-9.08087 -11.11939,-14.11741 4.80701,-14.59185 9.99037,-14.93769 15.36313,0.0626 17.29378,4.88541 4.68792,14.63055 0.69777,17.95703 -12.46583,8.97957 z"
       inkscape:transform-center-x="1.3006612"
       inkscape:transform-center-y="1.4157146" />
    <path
       sodipodi:type="star"
       style="fill:#515151;fill-opacity:1;fill-rule:evenodd;stroke:none;stroke-width:9;stroke-miterlimit:4;stroke-dasharray:none;stroke-opacity:1"
       id="path5274-2-37"
       sodipodi:sides="5"
       sodipodi:cx="248.44353"
       sodipodi:cy="396.66074"
       sodipodi:r1="28.096676"
       sodipodi:r2="25.00491"
       sodipodi:arg1="1.7211678"
       sodipodi:arg2="2.2968454"
       inkscape:flatsided="false"
       inkscape:rounded="0"
       inkscape:randomized="0"
       d="m 244.23449,424.44035 -12.39223,-9.08086 -11.11938,-14.11741 4.807,-14.59185 9.99038,-14.93769 15.36312,0.0626 17.29378,4.88541 4.68793,14.63055 0.69776,17.95703 -12.46582,8.97957 z"
       inkscape:transform-center-x="1.3709945"
       inkscape:transform-center-y="1.2239318"
       transform="matrix(1.0540716,0,0,0.8645334,-14.791986,57.497491)" />
    <path
       sodipodi:type="star"
       style="fill:#515151;fill-opacity:1;fill-rule:evenodd;stroke:none;stroke-width:9;stroke-miterlimit:4;stroke-dasharray:none;stroke-opacity:1"
       id="path5274-2-13"
       sodipodi:sides="5"
       sodipodi:cx="314.15781"
       sodipodi:cy="388.08936"
       sodipodi:r1="28.096676"
       sodipodi:r2="25.00491"
       sodipodi:arg1="1.7211678"
       sodipodi:arg2="2.2968454"
       inkscape:flatsided="false"
       inkscape:rounded="0"
       inkscape:randomized="0"
       d="m 309.94877,415.86897 -12.39223,-9.08086 -11.11938,-14.11741 4.807,-14.59185 9.99038,-14.93769 15.36312,0.0626 17.29378,4.88541 4.68793,14.63055 0.69776,17.95703 -12.46582,8.97957 z"
       inkscape:transform-center-x="-1.3678689"
       inkscape:transform-center-y="-1.3485716"
       transform="matrix(0.80438794,0.5941044,-0.5941044,0.80438794,292.01865,-110.72758)" />
    <path
       sodipodi:type="star"
       style="fill:#515151;fill-opacity:1;fill-rule:evenodd;stroke:none;stroke-width:9;stroke-miterlimit:4;stroke-dasharray:none;stroke-opacity:1"
       id="path5274-2-2"
       sodipodi:sides="5"
       sodipodi:cx="308.44349"
       sodipodi:cy="459.51792"
       sodipodi:r1="28.096676"
       sodipodi:r2="25.00491"
       sodipodi:arg1="1.7211678"
       sodipodi:arg2="2.2968454"
       inkscape:flatsided="false"
       inkscape:rounded="0"
       inkscape:randomized="0"
       d="m 304.23445,487.29753 -12.39224,-9.08086 -11.11938,-14.11741 4.80701,-14.59186 9.99037,-14.93768 15.36313,0.0626 17.29377,4.88542 4.68793,14.63054 0.69777,17.95704 -12.46583,8.97957 z"
       inkscape:transform-center-x="1.3006612"
       inkscape:transform-center-y="1.4157146" />
    <path
       sodipodi:type="star"
       style="fill:#515151;fill-opacity:1;fill-rule:evenodd;stroke:none;stroke-width:9;stroke-miterlimit:4;stroke-dasharray:none;stroke-opacity:1"
       id="path5274-2-83"
       sodipodi:sides="5"
       sodipodi:cx="361.30067"
       sodipodi:cy="483.80362"
       sodipodi:r1="28.096676"
       sodipodi:r2="25.00491"
       sodipodi:arg1="1.7211678"
       sodipodi:arg2="2.2968454"
       inkscape:flatsided="false"
       inkscape:rounded="0"
       inkscape:randomized="0"
       d="m 357.09162,511.58324 -12.39223,-9.08087 -11.11938,-14.11741 4.807,-14.59185 9.99038,-14.93768 15.36312,0.0626 17.29378,4.88541 4.68793,14.63055 0.69776,17.95703 -12.46582,8.97958 z"
       inkscape:transform-center-x="1.3006612"
       inkscape:transform-center-y="1.4157146" />
    <path
       sodipodi:type="star"
       style="fill:#515151;fill-opacity:1;fill-rule:evenodd;stroke:none;stroke-width:9;stroke-miterlimit:4;stroke-dasharray:none;stroke-opacity:1"
       id="path5274-2-81"
       sodipodi:sides="5"
       sodipodi:cx="381.30066"
       sodipodi:cy="415.23218"
       sodipodi:r1="28.096676"
       sodipodi:r2="25.00491"
       sodipodi:arg1="1.7211678"
       sodipodi:arg2="2.2968454"
       inkscape:flatsided="false"
       inkscape:rounded="0"
       inkscape:randomized="0"
       d="m 377.09162,443.0118 -12.39223,-9.08087 -11.11938,-14.11741 4.807,-14.59185 9.99038,-14.93768 15.36312,0.0626 17.29378,4.88541 4.68793,14.63055 0.69776,17.95703 -12.46582,8.97957 z"
       inkscape:transform-center-x="-0.23444739"
       inkscape:transform-center-y="-1.5448727"
       transform="matrix(0.73053948,-0.68287046,0.68287046,0.73053948,-180.80431,372.26763)" />
    <path
       sodipodi:type="star"
       style="fill:#515151;fill-opacity:1;fill-rule:evenodd;stroke:none;stroke-width:9;stroke-miterlimit:4;stroke-dasharray:none;stroke-opacity:1"
       id="path5274-2-12"
       sodipodi:sides="5"
       sodipodi:cx="411.30066"
       sodipodi:cy="462.37506"
       sodipodi:r1="28.096676"
       sodipodi:r2="25.00491"
       sodipodi:arg1="1.7211678"
       sodipodi:arg2="2.2968454"
       inkscape:flatsided="false"
       inkscape:rounded="0"
       inkscape:randomized="0"
       d="m 407.09162,490.15468 -12.39223,-9.08086 -11.11938,-14.11741 4.807,-14.59186 9.99038,-14.93768 15.36312,0.0626 17.29378,4.88542 4.68793,14.63054 0.69776,17.95703 -12.46582,8.97958 z"
       inkscape:transform-center-x="-0.94108277"
       inkscape:transform-center-y="-1.193161"
       transform="matrix(0.70657932,-0.49509086,0.54489277,0.64199963,-128.28996,373.88308)" />
    <path
       sodipodi:type="star"
       style="fill:#515151;fill-opacity:1;fill-rule:evenodd;stroke:none;stroke-width:9;stroke-miterlimit:4;stroke-dasharray:none;stroke-opacity:1"
       id="path5274-2-95"
       sodipodi:sides="5"
       sodipodi:cx="457.01494"
       sodipodi:cy="419.51792"
       sodipodi:r1="28.096676"
       sodipodi:r2="25.00491"
       sodipodi:arg1="1.7211678"
       sodipodi:arg2="2.2968454"
       inkscape:flatsided="false"
       inkscape:rounded="0"
       inkscape:randomized="0"
       d="m 452.80592,447.29753 -12.39223,-9.08086 -11.11939,-14.11741 4.80701,-14.59186 9.99037,-14.93768 15.36313,0.0626 17.29377,4.88542 4.68793,14.63054 0.69777,17.95704 -12.46583,8.97957 z"
       inkscape:transform-center-x="1.3006612"
       inkscape:transform-center-y="1.4157146" />
    <path
       sodipodi:type="star"
       style="fill:#515151;fill-opacity:1;fill-rule:evenodd;stroke:none;stroke-width:9;stroke-miterlimit:4;stroke-dasharray:none;stroke-opacity:1"
       id="path5274-2-372"
       sodipodi:sides="5"
       sodipodi:cx="517.01495"
       sodipodi:cy="395.23222"
       sodipodi:r1="28.096676"
       sodipodi:r2="25.00491"
       sodipodi:arg1="1.7211678"
       sodipodi:arg2="2.2968454"
       inkscape:flatsided="false"
       inkscape:rounded="0"
       inkscape:randomized="0"
       d="m 512.80592,423.01183 -12.39223,-9.08087 -11.11939,-14.11741 4.80701,-14.59185 9.99037,-14.93768 15.36313,0.0626 17.29377,4.88541 4.68793,14.63055 0.69777,17.95703 -12.46583,8.97957 z"
       inkscape:transform-center-x="1.3006612"
       inkscape:transform-center-y="1.4157146" />
    <path
       sodipodi:type="star"
       style="fill:#515151;fill-opacity:1;fill-rule:evenodd;stroke:none;stroke-width:9;stroke-miterlimit:4;stroke-dasharray:none;stroke-opacity:1"
       id="path5274-2-5"
       sodipodi:sides="5"
       sodipodi:cx="567.01495"
       sodipodi:cy="360.94649"
       sodipodi:r1="28.096676"
       sodipodi:r2="25.00491"
       sodipodi:arg1="1.7211678"
       sodipodi:arg2="2.2968454"
       inkscape:flatsided="false"
       inkscape:rounded="0"
       inkscape:randomized="0"
       d="m 562.80592,388.72612 -12.39223,-9.08086 -11.11939,-14.11741 4.80701,-14.59186 9.99037,-14.93768 15.36313,0.0626 17.29377,4.88542 4.68793,14.63054 0.69777,17.95704 -12.46583,8.97957 z"
       inkscape:transform-center-x="1.3006612"
       inkscape:transform-center-y="1.4157146" />
    <path
       sodipodi:type="star"
       style="fill:#515151;fill-opacity:1;fill-rule:evenodd;stroke:none;stroke-width:9;stroke-miterlimit:4;stroke-dasharray:none;stroke-opacity:1"
       id="path5274-2-20"
       sodipodi:sides="5"
       sodipodi:cx="567.01495"
       sodipodi:cy="285.23218"
       sodipodi:r1="28.096676"
       sodipodi:r2="25.00491"
       sodipodi:arg1="1.7211678"
       sodipodi:arg2="2.2968454"
       inkscape:flatsided="false"
       inkscape:rounded="0"
       inkscape:randomized="0"
       d="m 562.80592,313.0118 -12.39223,-9.08087 -11.11939,-14.11741 4.80701,-14.59185 9.99037,-14.93768 15.36313,0.0626 17.29377,4.88541 4.68793,14.63055 0.69777,17.95703 -12.46583,8.97957 z"
       inkscape:transform-center-x="1.3006612"
       inkscape:transform-center-y="1.4157146" />
    <path
       sodipodi:type="star"
       style="fill:#515151;fill-opacity:1;fill-rule:evenodd;stroke:none;stroke-width:9;stroke-miterlimit:4;stroke-dasharray:none;stroke-opacity:1"
       id="path5274-2-4"
       sodipodi:sides="5"
       sodipodi:cx="492.72925"
       sodipodi:cy="336.66079"
       sodipodi:r1="28.096676"
       sodipodi:r2="25.00491"
       sodipodi:arg1="1.7211678"
       sodipodi:arg2="2.2968454"
       inkscape:flatsided="false"
       inkscape:rounded="0"
       inkscape:randomized="0"
       d="m 488.52021,364.44042 -12.39223,-9.08087 -11.11938,-14.11741 4.807,-14.59185 9.99038,-14.93769 15.36312,0.0626 17.29378,4.88541 4.68793,14.63055 0.69776,17.95703 -12.46582,8.97957 z"
       inkscape:transform-center-x="1.3006612"
       inkscape:transform-center-y="1.4157146" />
    <path
       sodipodi:type="star"
       style="fill:#515151;fill-opacity:1;fill-rule:evenodd;stroke:none;stroke-width:9;stroke-miterlimit:4;stroke-dasharray:none;stroke-opacity:1"
       id="path5274-2-7"
       sodipodi:sides="5"
       sodipodi:cx="429.87208"
       sodipodi:cy="358.08936"
       sodipodi:r1="28.096676"
       sodipodi:r2="25.00491"
       sodipodi:arg1="1.7211678"
       sodipodi:arg2="2.2968454"
       inkscape:flatsided="false"
       inkscape:rounded="0"
       inkscape:randomized="0"
       d="m 425.66304,385.86897 -12.39224,-9.08086 -11.11938,-14.11741 4.807,-14.59185 9.99038,-14.93769 15.36313,0.0626 17.29377,4.88541 4.68793,14.63055 0.69776,17.95703 -12.46582,8.97957 z"
       inkscape:transform-center-x="1.3006612"
       inkscape:transform-center-y="1.4157146" />
    <path
       sodipodi:type="star"
       style="fill:#515151;fill-opacity:1;fill-rule:evenodd;stroke:none;stroke-width:9;stroke-miterlimit:4;stroke-dasharray:none;stroke-opacity:1"
       id="path5274-2-6"
       sodipodi:sides="5"
       sodipodi:cx="369.87212"
       sodipodi:cy="350.94647"
       sodipodi:r1="28.096676"
       sodipodi:r2="25.00491"
       sodipodi:arg1="1.7211678"
       sodipodi:arg2="2.2968454"
       inkscape:flatsided="false"
       inkscape:rounded="0"
       inkscape:randomized="0"
       d="m 365.6631,378.72609 -12.39224,-9.08086 -11.11938,-14.11741 4.80701,-14.59186 9.99037,-14.93768 15.36313,0.0626 17.29377,4.88542 4.68793,14.63054 0.69777,17.95704 -12.46583,8.97957 z"
       inkscape:transform-center-x="1.3006612"
       inkscape:transform-center-y="1.4157146" />
    <path
       sodipodi:type="star"
       style="fill:#515151;fill-opacity:1;fill-rule:evenodd;stroke:none;stroke-width:9;stroke-miterlimit:4;stroke-dasharray:none;stroke-opacity:1"
       id="path5274-2-77"
       sodipodi:sides="5"
       sodipodi:cx="381.30065"
       sodipodi:cy="288.08932"
       sodipodi:r1="28.096676"
       sodipodi:r2="25.00491"
       sodipodi:arg1="1.7211678"
       sodipodi:arg2="2.2968454"
       inkscape:flatsided="false"
       inkscape:rounded="0"
       inkscape:randomized="0"
       d="m 377.09162,315.86894 -12.39223,-9.08086 -11.11938,-14.11741 4.807,-14.59186 9.99038,-14.93768 15.36312,0.0626 17.29378,4.88542 4.68793,14.63054 0.69776,17.95704 -12.46582,8.97957 z"
       inkscape:transform-center-x="1.3006612"
       inkscape:transform-center-y="1.4157146" />
    <path
       sodipodi:type="star"
       style="fill:#515151;fill-opacity:1;fill-rule:evenodd;stroke:none;stroke-width:9;stroke-miterlimit:4;stroke-dasharray:none;stroke-opacity:1"
       id="path5274-2-98"
       sodipodi:sides="5"
       sodipodi:cx="295.58636"
       sodipodi:cy="325.23221"
       sodipodi:r1="28.096676"
       sodipodi:r2="25.00491"
       sodipodi:arg1="1.7211678"
       sodipodi:arg2="2.2968454"
       inkscape:flatsided="false"
       inkscape:rounded="0"
       inkscape:randomized="0"
       d="m 291.37733,353.01183 -12.39223,-9.08087 -11.11939,-14.11741 4.80701,-14.59185 9.99037,-14.93768 15.36313,0.0626 17.29378,4.88541 4.68792,14.63055 0.69777,17.95703 -12.46583,8.97957 z"
       inkscape:transform-center-x="1.3006612"
       inkscape:transform-center-y="1.4157146" />
    <path
       sodipodi:type="star"
       style="fill:#515151;fill-opacity:1;fill-rule:evenodd;stroke:none;stroke-width:9;stroke-miterlimit:4;stroke-dasharray:none;stroke-opacity:1"
       id="path5274-2-832"
       sodipodi:sides="5"
       sodipodi:cx="328.44353"
       sodipodi:cy="275.23219"
       sodipodi:r1="28.096676"
       sodipodi:r2="25.00491"
       sodipodi:arg1="1.7211678"
       sodipodi:arg2="2.2968454"
       inkscape:flatsided="false"
       inkscape:rounded="0"
       inkscape:randomized="0"
       d="m 324.23451,303.0118 -12.39223,-9.08087 -11.11939,-14.11741 4.80701,-14.59185 9.99037,-14.93768 15.36313,0.0626 17.29377,4.88541 4.68793,14.63055 0.69777,17.95703 -12.46583,8.97957 z"
       inkscape:transform-center-x="1.3006612"
       inkscape:transform-center-y="1.4157146" />
    <path
       sodipodi:type="star"
       style="fill:#515151;fill-opacity:1;fill-rule:evenodd;stroke:none;stroke-width:9;stroke-miterlimit:4;stroke-dasharray:none;stroke-opacity:1"
       id="path5274-2-44"
       sodipodi:sides="5"
       sodipodi:cx="301.30065"
       sodipodi:cy="219.51791"
       sodipodi:r1="28.096676"
       sodipodi:r2="25.00491"
       sodipodi:arg1="1.7211678"
       sodipodi:arg2="2.2968454"
       inkscape:flatsided="false"
       inkscape:rounded="0"
       inkscape:randomized="0"
       d="m 297.09162,247.29753 -12.39223,-9.08086 -11.11938,-14.11741 4.807,-14.59186 9.99038,-14.93768 15.36312,0.0626 17.29378,4.88542 4.68793,14.63054 0.69776,17.95704 -12.46582,8.97957 z"
       inkscape:transform-center-x="1.3006612"
       inkscape:transform-center-y="1.4157146" />
    <path
       sodipodi:type="star"
       style="fill:#515151;fill-opacity:1;fill-rule:evenodd;stroke:none;stroke-width:9;stroke-miterlimit:4;stroke-dasharray:none;stroke-opacity:1"
       id="path5274-2-72"
       sodipodi:sides="5"
       sodipodi:cx="379.87209"
       sodipodi:cy="216.66078"
       sodipodi:r1="28.096676"
       sodipodi:r2="25.00491"
       sodipodi:arg1="1.7211678"
       sodipodi:arg2="2.2968454"
       inkscape:flatsided="false"
       inkscape:rounded="0"
       inkscape:randomized="0"
       d="m 375.66307,244.4404 -12.39224,-9.08086 -11.11938,-14.11741 4.807,-14.59186 9.99038,-14.93768 15.36313,0.0626 17.29377,4.88542 4.68793,14.63054 0.69777,17.95704 -12.46583,8.97957 z"
       inkscape:transform-center-x="1.3006612"
       inkscape:transform-center-y="1.4157146" />
    <path
       sodipodi:type="star"
       style="fill:#515151;fill-opacity:1;fill-rule:evenodd;stroke:none;stroke-width:9;stroke-miterlimit:4;stroke-dasharray:none;stroke-opacity:1"
       id="path5274-2-59"
       sodipodi:sides="5"
       sodipodi:cx="442.72924"
       sodipodi:cy="300.9465"
       sodipodi:r1="28.096676"
       sodipodi:r2="25.00491"
       sodipodi:arg1="1.7211678"
       sodipodi:arg2="2.2968454"
       inkscape:flatsided="false"
       inkscape:rounded="0"
       inkscape:randomized="0"
       d="m 438.52021,328.72612 -12.39223,-9.08086 -11.11938,-14.11741 4.807,-14.59186 9.99038,-14.93768 15.36312,0.0626 17.29378,4.88542 4.68793,14.63054 0.69776,17.95704 -12.46582,8.97957 z"
       inkscape:transform-center-x="1.3006612"
       inkscape:transform-center-y="1.4157146" />
    <path
       sodipodi:type="star"
       style="fill:#515151;fill-opacity:1;fill-rule:evenodd;stroke:none;stroke-width:9;stroke-miterlimit:4;stroke-dasharray:none;stroke-opacity:1"
       id="path5274-2-18"
       sodipodi:sides="5"
       sodipodi:cx="505.58638"
       sodipodi:cy="272.37507"
       sodipodi:r1="28.096676"
       sodipodi:r2="25.00491"
       sodipodi:arg1="1.7211678"
       sodipodi:arg2="2.2968454"
       inkscape:flatsided="false"
       inkscape:rounded="0"
       inkscape:randomized="0"
       d="m 501.37733,300.15468 -12.39223,-9.08086 -11.11939,-14.11741 4.80701,-14.59186 9.99037,-14.93768 15.36313,0.0626 17.29378,4.88542 4.68792,14.63054 0.69777,17.95703 -12.46583,8.97958 z"
       inkscape:transform-center-x="1.3006612"
       inkscape:transform-center-y="1.4157146" />
    <path
       sodipodi:type="star"
       style="fill:#515151;fill-opacity:1;fill-rule:evenodd;stroke:none;stroke-width:9;stroke-miterlimit:4;stroke-dasharray:none;stroke-opacity:1"
       id="path5274-2-720"
       sodipodi:sides="5"
       sodipodi:cx="538.44348"
       sodipodi:cy="215.23221"
       sodipodi:r1="28.096676"
       sodipodi:r2="25.00491"
       sodipodi:arg1="1.7211678"
       sodipodi:arg2="2.2968454"
       inkscape:flatsided="false"
       inkscape:rounded="0"
       inkscape:randomized="0"
       d="m 534.23445,243.01183 -12.39224,-9.08087 -11.11938,-14.11741 4.80701,-14.59185 9.99037,-14.93768 15.36313,0.0626 17.29377,4.88541 4.68793,14.63055 0.69777,17.95703 -12.46583,8.97957 z"
       inkscape:transform-center-x="1.3006612"
       inkscape:transform-center-y="1.4157146" />
    <path
       sodipodi:type="star"
       style="fill:#515151;fill-opacity:1;fill-rule:evenodd;stroke:none;stroke-width:9;stroke-miterlimit:4;stroke-dasharray:none;stroke-opacity:1"
       id="path5274-2-52"
       sodipodi:sides="5"
       sodipodi:cx="461.30066"
       sodipodi:cy="228.08934"
       sodipodi:r1="28.096676"
       sodipodi:r2="25.00491"
       sodipodi:arg1="1.7211678"
       sodipodi:arg2="2.2968454"
       inkscape:flatsided="false"
       inkscape:rounded="0"
       inkscape:randomized="0"
       d="m 457.09162,255.86896 -12.39223,-9.08087 -11.11938,-14.11741 4.807,-14.59185 9.99038,-14.93768 15.36312,0.0626 17.29378,4.88541 4.68793,14.63055 0.69776,17.95703 -12.46582,8.97958 z"
       inkscape:transform-center-x="1.2654976"
       inkscape:transform-center-y="1.4540666"
       transform="matrix(0.97296419,0,0,1.0270933,8.8650431,-9.7894823)" />
    <path
       sodipodi:type="star"
       style="fill:#515151;fill-opacity:1;fill-rule:evenodd;stroke:none;stroke-width:9;stroke-miterlimit:4;stroke-dasharray:none;stroke-opacity:1"
       id="path5274-2-05"
       sodipodi:sides="5"
       sodipodi:cx="237.01494"
       sodipodi:cy="343.80365"
       sodipodi:r1="28.096676"
       sodipodi:r2="25.00491"
       sodipodi:arg1="1.7211678"
       sodipodi:arg2="2.2968454"
       inkscape:flatsided="false"
       inkscape:rounded="0"
       inkscape:randomized="0"
       d="m 232.8059,371.58327 -12.39223,-9.08087 -11.11938,-14.11741 4.807,-14.59185 9.99038,-14.93768 15.36312,0.0626 17.29378,4.88541 4.68793,14.63055 0.69776,17.95703 -12.46582,8.97958 z"
       inkscape:transform-center-x="-0.62291721"
       inkscape:transform-center-y="1.6063746"
       transform="matrix(0.51099128,0.8595859,-0.8595859,0.51099128,411.43114,-35.611713)" />
  </g>
</svg>
