<?xml version="1.0" encoding="UTF-8" standalone="no"?>
<!-- Created with Inkscape (http://www.inkscape.org/) -->

<svg
   xmlns:dc="http://purl.org/dc/elements/1.1/"
   xmlns:cc="http://creativecommons.org/ns#"
   xmlns:rdf="http://www.w3.org/1999/02/22-rdf-syntax-ns#"
   xmlns:svg="http://www.w3.org/2000/svg"
   xmlns="http://www.w3.org/2000/svg"
   xmlns:sodipodi="http://sodipodi.sourceforge.net/DTD/sodipodi-0.dtd"
   xmlns:inkscape="http://www.inkscape.org/namespaces/inkscape"
   width="210mm"
   height="297mm"
   viewBox="0 0 744.09448819 1052.3622047"
   id="svg2"
   version="1.1"
   inkscape:version="0.91 r13725"
   sodipodi:docname="hero.svg"
   inkscape:export-filename="C:\Users\Yannick R. Brodard\hero.png"
   inkscape:export-xdpi="7.3356905"
   inkscape:export-ydpi="7.3356905">
  <defs
     id="defs4" />
  <sodipodi:namedview
     id="base"
     pagecolor="#ffffff"
     bordercolor="#666666"
     borderopacity="1.0"
     inkscape:pageopacity="0.0"
     inkscape:pageshadow="2"
     inkscape:zoom="0.98994949"
     inkscape:cx="235.45701"
     inkscape:cy="617.23279"
     inkscape:document-units="px"
     inkscape:current-layer="layer1"
     showgrid="false"
     inkscape:window-width="1680"
     inkscape:window-height="988"
     inkscape:window-x="-8"
     inkscape:window-y="-8"
     inkscape:window-maximized="1" />
  <metadata
     id="metadata7">
    <rdf:RDF>
      <cc:Work
         rdf:about="">
        <dc:format>image/svg+xml</dc:format>
        <dc:type
           rdf:resource="http://purl.org/dc/dcmitype/StillImage" />
        <dc:title></dc:title>
      </cc:Work>
    </rdf:RDF>
  </metadata>
  <g
     inkscape:label="Calque 1"
     inkscape:groupmode="layer"
     id="layer1">
    <g
       id="g4302">
      <g
         id="g4187">
        <g
           id="g4168"
           style="fill:#00acff;fill-opacity:1">
          <ellipse
             ry="41.921329"
             rx="80.812202"
             cy="391.72244"
             cx="478.81235"
             id="path4138-5"
             style="fill:#00acff;fill-opacity:1;fill-rule:evenodd;stroke:#000000;stroke-width:9;stroke-miterlimit:4;stroke-dasharray:none;stroke-opacity:1" />
          <ellipse
             ry="41.921329"
             rx="80.812202"
             cy="391.72244"
             cx="253.54829"
             id="path4138"
             style="fill:#00acff;fill-opacity:1;fill-rule:evenodd;stroke:#000000;stroke-width:9;stroke-miterlimit:4;stroke-dasharray:none;stroke-opacity:1" />
        </g>
        <circle
           style="fill:#eade9e;fill-opacity:1;fill-rule:evenodd;stroke:#000000;stroke-width:9;stroke-miterlimit:4;stroke-dasharray:none;stroke-opacity:1"
           id="path4136"
           cx="366.18033"
           cy="391.44708"
           r="118.18785" />
      </g>
      <path
         id="path4136-2"
         d="M 368.30859 273.33594 A 17.172594 74.246216 0 0 1 357.59375 289.57031 A 17.172594 74.246216 0 0 1 347.59375 275.60156 A 17.172594 74.246216 0 0 1 334.36133 302.70312 A 17.172594 74.246216 0 0 1 322.80078 283.20117 A 17.172594 74.246216 0 0 1 309.10742 312.80469 A 17.172594 74.246216 0 0 1 297.98438 295.10547 A 118.18785 118.18785 0 0 0 297.70703 295.29492 A 17.172594 74.246216 0 0 1 282.8418 332.50195 A 17.172594 74.246216 0 0 1 272.98242 318.99414 A 118.18785 118.18785 0 0 0 247.99219 391.44727 A 118.18785 118.18785 0 0 0 366.17969 509.63477 A 118.18785 118.18785 0 0 0 484.36914 391.44727 A 118.18785 118.18785 0 0 0 463.29883 324.48633 A 17.172594 74.246216 0 0 1 455.57812 332.50195 A 17.172594 74.246216 0 0 1 441.5332 300.90039 A 118.18785 118.18785 0 0 0 439.2832 298.94141 A 17.172594 74.246216 0 0 1 429.31445 312.80469 A 17.172594 74.246216 0 0 1 415.86133 284.57422 A 118.18785 118.18785 0 0 0 415.34961 284.32812 A 17.172594 74.246216 0 0 1 404.06055 302.70312 A 17.172594 74.246216 0 0 1 390.88867 276.07812 A 118.18785 118.18785 0 0 0 390.69727 276.03125 A 17.172594 74.246216 0 0 1 380.82812 289.57031 A 17.172594 74.246216 0 0 1 370.13477 273.41602 A 118.18785 118.18785 0 0 0 368.30859 273.33594 z "
         style="fill:#262200;fill-opacity:1;fill-rule:evenodd;stroke:none;stroke-width:9;stroke-miterlimit:4;stroke-dasharray:none;stroke-opacity:1" />
    </g>
  </g>
</svg>
