<?xml version="1.0" encoding="UTF-8" standalone="no"?>
<!-- Created with Inkscape (http://www.inkscape.org/) -->

<svg
   xmlns:dc="http://purl.org/dc/elements/1.1/"
   xmlns:cc="http://creativecommons.org/ns#"
   xmlns:rdf="http://www.w3.org/1999/02/22-rdf-syntax-ns#"
   xmlns:svg="http://www.w3.org/2000/svg"
   xmlns="http://www.w3.org/2000/svg"
   xmlns:sodipodi="http://sodipodi.sourceforge.net/DTD/sodipodi-0.dtd"
   xmlns:inkscape="http://www.inkscape.org/namespaces/inkscape"
   width="210mm"
   height="297mm"
   viewBox="0 0 744.09448819 1052.3622047"
   id="svg2"
   version="1.1"
   inkscape:version="0.91 r13725"
   sodipodi:docname="selector.svg">
  <defs
     id="defs4">
    <inkscape:perspective
       sodipodi:type="inkscape:persp3d"
       inkscape:vp_x="0 : 526.1811 : 1"
       inkscape:vp_y="0 : 1000 : 0"
       inkscape:vp_z="744.09449 : 526.1811 : 1"
       inkscape:persp3d-origin="372.04724 : 350.7874 : 1"
       id="perspective4397" />
  </defs>
  <sodipodi:namedview
     id="base"
     pagecolor="#ffffff"
     bordercolor="#666666"
     borderopacity="1.0"
     inkscape:pageopacity="0.0"
     inkscape:pageshadow="2"
     inkscape:zoom="2.8"
     inkscape:cx="322.31766"
     inkscape:cy="615.54138"
     inkscape:document-units="px"
     inkscape:current-layer="layer1"
     showgrid="false"
     inkscape:window-width="1680"
     inkscape:window-height="988"
     inkscape:window-x="-8"
     inkscape:window-y="-8"
     inkscape:window-maximized="1" />
  <metadata
     id="metadata7">
    <rdf:RDF>
      <cc:Work
         rdf:about="">
        <dc:format>image/svg+xml</dc:format>
        <dc:type
           rdf:resource="http://purl.org/dc/dcmitype/StillImage" />
        <dc:title></dc:title>
      </cc:Work>
    </rdf:RDF>
  </metadata>
  <g
     inkscape:label="Calque 1"
     inkscape:groupmode="layer"
     id="layer1">
    <path
       style="fill:#ffffff;fill-opacity:1;fill-rule:evenodd;stroke:#c0c0c0;stroke-width:2;stroke-miterlimit:4;stroke-dasharray:none;stroke-opacity:1"
       d="M 331.06445 316.10938 L 317.92383 329.25195 L 317.76953 329.09766 L 306.19727 340.67188 A 10.399481 59.998939 45 0 1 274.66602 378.44141 A 10.399481 59.998939 45 0 1 236.92773 409.94141 L 218.63281 428.23633 L 236.89062 446.49414 A 59.998939 10.399481 45 0 1 274.66602 478.03125 A 59.998939 10.399481 45 0 1 306.16797 515.77344 L 306.41406 516.01953 L 306.57227 515.86328 L 331.07031 540.36328 L 441.4375 540.36328 L 441.4375 537.3125 L 332.36328 428.23633 L 441.4375 319.16211 L 441.4375 316.10938 L 331.06445 316.10938 z "
       id="rect4136" />
    <path
       style="fill:#ffffff;fill-opacity:1;fill-rule:evenodd;stroke:#c0c0c0;stroke-width:2;stroke-miterlimit:4;stroke-dasharray:none;stroke-opacity:1"
       d="M 336.78516 340.55078 A 11.428572 11.428572 0 0 1 337.5 344.50586 A 11.428572 11.428572 0 0 1 326.07227 355.93359 A 11.428572 11.428572 0 0 1 314.85547 346.6543 L 301.75195 359.75781 A 8.1326699 46.920762 45 0 1 277.09375 389.29492 A 8.1326699 46.920762 45 0 1 247.58203 413.92969 L 241.02344 420.48828 L 248.96875 428.43359 L 241.2207 436.18164 L 247.55273 442.51367 A 46.920762 8.1326699 45 0 1 277.09375 467.17773 A 46.920762 8.1326699 45 0 1 301.72852 496.69336 L 314.6875 509.65234 A 11.428572 11.428572 0 0 1 326.07227 499.14844 A 11.428572 11.428572 0 0 1 337.5 510.57617 A 11.428572 11.428572 0 0 1 336.16602 515.92188 L 407.51367 515.92188 L 407.51367 513.53711 L 322.21484 428.23633 L 407.51367 342.9375 L 407.51367 340.55078 L 336.78516 340.55078 z "
       id="rect4136-2" />
    <circle
       style="fill:#ffffff;fill-opacity:1;fill-rule:evenodd;stroke:#c0c0c0;stroke-width:2;stroke-miterlimit:4;stroke-dasharray:none;stroke-opacity:1"
       id="path4190"
       cx="286.88333"
       cy="428.23633"
       r="13.637059" />
    <rect
       style="fill:#ffffff;fill-opacity:1;fill-rule:evenodd;stroke:#c0c0c0;stroke-width:2;stroke-miterlimit:4;stroke-dasharray:none;stroke-opacity:1"
       id="rect4192"
       width="69.19545"
       height="12.626906"
       x="538.73114"
       y="94.694"
       transform="matrix(0.70710678,0.70710678,-0.70710678,0.70710678,0,0)" />
    <rect
       style="fill:#ffffff;fill-opacity:1;fill-rule:evenodd;stroke:#c0c0c0;stroke-width:2;stroke-miterlimit:4;stroke-dasharray:none;stroke-opacity:1"
       id="rect4192-6"
       width="69.19545"
       height="12.626906"
       x="-65.426598"
       y="496.83685"
       transform="matrix(0.70710678,-0.70710678,0.70710678,0.70710678,0,0)" />
    <circle
       style="fill:#ffffff;fill-opacity:1;fill-rule:evenodd;stroke:#c0c0c0;stroke-width:2;stroke-miterlimit:4;stroke-dasharray:none;stroke-opacity:1"
       id="path4190-1"
       cx="286.88333"
       cy="428.23633"
       r="6.8137999" />
    <rect
       style="fill:#ffffff;fill-opacity:1;fill-rule:evenodd;stroke:#c0c0c0;stroke-width:1.5;stroke-miterlimit:4;stroke-dasharray:none;stroke-opacity:1"
       id="rect4260"
       width="67.791176"
       height="0.89995348"
       x="-65.00618"
       y="516.19629"
       transform="matrix(0.70710678,-0.70710678,0.70710678,0.70710678,0,0)" />
    <rect
       style="fill:#ffffff;fill-opacity:1;fill-rule:evenodd;stroke:#c0c0c0;stroke-width:1.5;stroke-miterlimit:4;stroke-dasharray:none;stroke-opacity:1"
       id="rect4260-9"
       width="67.791176"
       height="0.89995348"
       x="539.18286"
       y="86.378471"
       transform="matrix(0.70710678,0.70710678,-0.70710678,0.70710678,0,0)" />
    <path
       style="fill:#ffffff;fill-opacity:1;fill-rule:evenodd;stroke:#c0c0c0;stroke-width:2;stroke-miterlimit:4;stroke-dasharray:none;stroke-opacity:1"
       d="M 434.28516 336.81836 L 342.86719 428.23633 L 434.28516 519.6543 L 446.86523 507.07422 L 446.86523 349.39844 L 434.28516 336.81836 z "
       id="rect4330" />
    <circle
       style="fill:#ffffff;fill-opacity:1;fill-rule:evenodd;stroke:#c0c0c0;stroke-width:2.08628964;stroke-miterlimit:4;stroke-dasharray:none;stroke-opacity:1"
       id="path4341"
       cx="405.71429"
       cy="428.43362"
       r="37.813999" />
    <path
       sodipodi:type="spiral"
       style="fill:none;fill-rule:evenodd;stroke:#c0c0c0;stroke-width:2;stroke-linecap:butt;stroke-linejoin:miter;stroke-miterlimit:4;stroke-dasharray:none;stroke-opacity:1"
       id="path4337"
       sodipodi:cx="407.85715"
       sodipodi:cy="428.79077"
       sodipodi:expansion="1"
       sodipodi:revolution="3"
       sodipodi:radius="35.7589"
       sodipodi:argument="-17.328718"
       sodipodi:t0="0"
       d="m 407.85715,428.79077 c 0.0895,1.79066 -2.3696,1.00414 -2.97619,0.14881 -1.64383,-2.31788 0.40938,-5.25191 2.67857,-6.10119 4.05903,-1.51916 8.19491,1.61463 9.22619,5.50595 1.51343,5.71068 -2.82334,11.1895 -8.33333,12.35119 -7.34396,1.54835 -14.20393,-4.03158 -15.47619,-11.16071 -1.60102,-8.97128 5.2392,-17.22818 13.98809,-18.60119 10.59607,-1.66291 20.25803,6.44639 21.72619,16.81547 1.73017,12.2196 -7.65329,23.29141 -19.64285,24.85119 -13.84243,1.80084 -26.32712,-8.85999 -27.9762,-22.47023 -1.87378,-15.46481 10.06658,-29.36447 25.29762,-31.10119 17.08692,-1.94834 32.40302,11.27306 34.22619,28.12499 2.02407,18.70884 -12.47948,35.44247 -30.95237,37.3512"
       transform="matrix(0.70710678,0.70710678,-0.70710678,0.70710678,417.55484,-166.12869)" />
    <path
       inkscape:connector-curvature="0"
       style="fill:#ffffff;fill-opacity:1;fill-rule:evenodd;stroke:#c0c0c0;stroke-width:2;stroke-miterlimit:4;stroke-dasharray:none;stroke-opacity:1"
       d="m 426.78523,389.32592 0,-36.07031 5.0371,0 a 2.6785715,5.3571429 0 0 0 -0.0371,0.89258 2.6785715,5.3571429 0 0 0 2.67969,5.35742 2.6785715,5.3571429 0 0 0 2.67773,-5.35742 2.6785715,5.3571429 0 0 0 -0.041,-0.89258 l 3.25586,0 0,33.17383 a 4.2857141,4.2857141 0 0 0 -1.07226,-0.13867 4.2857141,4.2857141 0 0 0 -4.09375,3.03515 l -8.40625,0 z m 4.64256,-12.32031 4.64454,0 0,-10 -4.64454,0 0,10 z"
       id="rect4343-2-4" />
    <path
       style="fill:#ffffff;fill-opacity:1;fill-rule:evenodd;stroke:#c0c0c0;stroke-width:2;stroke-miterlimit:4;stroke-dasharray:none;stroke-opacity:1"
       d="m 426.78524,467.89844 0,36.07031 5.03711,0 a 2.6785715,5.3571429 0 0 1 -0.0371,-0.89258 2.6785715,5.3571429 0 0 1 2.67968,-5.35742 2.6785715,5.3571429 0 0 1 2.67774,5.35742 2.6785715,5.3571429 0 0 1 -0.041,0.89258 l 3.25586,0 0,-33.17383 a 4.2857141,4.2857141 0 0 1 -1.07226,0.13867 4.2857141,4.2857141 0 0 1 -4.09375,-3.03515 l -8.40625,0 z m 4.64257,12.32031 4.64454,0 0,10 -4.64454,0 0,-10 z"
       id="rect4343-2"
       inkscape:connector-curvature="0" />
    <rect
       style="fill:#ffffff;fill-opacity:1;fill-rule:evenodd;stroke:#c0c0c0;stroke-width:2;stroke-miterlimit:4;stroke-dasharray:none;stroke-opacity:1"
       id="rect4343-3"
       width="8.7335835"
       height="23.212948"
       x="552.15875"
       y="-37.99678"
       transform="matrix(0.70710678,0.70710678,-0.70710678,0.70710678,0,0)" />
    <rect
       style="fill:#ffffff;fill-opacity:1;fill-rule:evenodd;stroke:#c0c0c0;stroke-width:2;stroke-miterlimit:4;stroke-dasharray:none;stroke-opacity:1"
       id="rect4343-3-9"
       width="8.7335835"
       height="23.212948"
       x="45.509426"
       y="-644.3985"
       transform="matrix(-0.70710678,0.70710678,-0.70710678,-0.70710678,0,0)" />
    <path
       sodipodi:type="star"
       style="fill:#ffffff;fill-opacity:1;fill-rule:evenodd;stroke:#c0c0c0;stroke-width:2.27386026;stroke-miterlimit:4;stroke-dasharray:none;stroke-opacity:1"
       id="path4390"
       sodipodi:sides="5"
       sodipodi:cx="357.89767"
       sodipodi:cy="427.68655"
       sodipodi:r1="3.506464"
       sodipodi:r2="7.711966"
       sodipodi:arg1="0.21109329"
       sodipodi:arg2="0.83941184"
       inkscape:flatsided="false"
       inkscape:rounded="0"
       inkscape:randomized="0"
       d="m 361.3263,428.42126 1.7222,5.00493 -4.79007,-2.25178 -4.22778,3.18452 0.66136,-5.25147 -4.33511,-3.03679 5.1988,-0.9938 1.54854,-5.06136 2.55169,4.63726 5.29215,-0.0913 z"
       inkscape:transform-center-x="0.56098244"
       inkscape:transform-center-y="-0.1236707"
       transform="matrix(-0.60745588,0.63610206,-0.63610206,-0.60745588,848.10943,459.69621)" />
  </g>
</svg>
